<?xml version="1.0" encoding="utf-8"?>
<!-- Generator: Adobe Illustrator 18.1.0, SVG Export Plug-In . SVG Version: 6.00 Build 0)  -->
<svg version="1.1" id="Layer_1" xmlns="http://www.w3.org/2000/svg" xmlns:xlink="http://www.w3.org/1999/xlink" x="0px" y="0px"
	 viewBox="0 0 1234.4 366" enable-background="new 0 0 1234.4 366" xml:space="preserve">
<polygon fill="#FFFFFF" points="351.1,345.5 351.1,19.4 133.2,237.3 180.1,237.3 180.1,323.7 57.3,323.7 90.4,345.5 "/>
<g>
	<path fill="#FFFFFF" d="M215.7,29.5c-67.6,0-110.9,45-122.9,104.5c-27.9,9.6-51.2,29.9-65.7,60.2c-28.4,59.5,4,123.3,32.6,144.3
		c24.4,17.9,142.3,5.2,151.3,7c-0.2-7.6-69.8-5.7-69.7-13.3c-81.5,6.3-108-76.8-85.2-124.7c13-27.3,30.9-45,62.3-45v0l0,0
		c7.1-52.7,45.2-103.7,97.2-103.7c26,0,47.8,9.9,71.8,32.4c7.7-5.9,13.7-18.8,18.7-27C284.4,40.9,250.8,29.5,215.7,29.5z"/>
	<path fill="#FFFFFF" d="M111.8,333.3C113.5,333.8,110.1,332.6,111.8,333.3L111.8,333.3z"/>
</g>
<g>
	<path fill="#FFFFFF" d="M431.2,91.7h66.2c18.3,0,32.4,4.9,42.2,14.7c8.3,8.3,12.4,19.3,12.4,33.1v0.4c0,11.7-2.9,21.3-8.6,28.6
		c-5.7,7.4-13.2,12.8-22.4,16.2l35.4,51.7h-37.2l-31-46.3h-0.4H463v46.3h-31.8V91.7z M495.3,162c7.9,0,13.9-1.9,18.1-5.6
		c4.2-3.7,6.3-8.7,6.3-14.9v-0.4c0-6.9-2.2-12.1-6.6-15.5c-4.4-3.4-10.5-5.2-18.4-5.2H463V162H495.3z"/>
	<path fill="#FFFFFF" d="M630.3,90.7h29.4l62,145.7h-33.3L675.2,204H614l-13.2,32.5h-32.5L630.3,90.7z M663.8,175.9L644.6,129
		l-19.2,46.9H663.8z"/>
	<path fill="#FFFFFF" d="M744,91.7h56.4c11.3,0,21.7,1.8,31.1,5.5c9.4,3.7,17.6,8.7,24.4,15.2c6.8,6.5,12.1,14.1,15.8,22.8
		c3.7,8.8,5.6,18.2,5.6,28.4v0.4c0,10.2-1.9,19.7-5.6,28.5c-3.7,8.8-9,16.5-15.8,22.9c-6.8,6.5-15,11.6-24.4,15.3
		c-9.4,3.7-19.8,5.6-31.1,5.6H744V91.7z M800.4,207.7c6.5,0,12.4-1,17.8-3.1s10-5,13.7-8.9c3.8-3.9,6.8-8.4,8.9-13.6
		c2.1-5.2,3.2-11.1,3.2-17.6v-0.4c0-6.3-1.1-12.2-3.2-17.6c-2.1-5.4-5.1-10-8.9-13.9c-3.8-3.9-8.4-6.9-13.7-9
		c-5.4-2.1-11.3-3.2-17.8-3.2h-24.6v87.2H800.4z"/>
	<path fill="#FFFFFF" d="M975.9,238.9c-11.2,0-21.4-2-30.8-5.9c-9.4-3.9-17.5-9.2-24.3-15.9c-6.8-6.7-12.1-14.5-15.9-23.6
		c-3.8-9-5.7-18.7-5.7-29v-0.4c0-10.3,1.9-20,5.8-29c3.9-9,9.2-17,16-23.8c6.8-6.8,15-12.2,24.4-16.1c9.4-3.9,19.7-5.9,30.9-5.9
		c11.2,0,21.4,2,30.8,5.9c9.4,3.9,17.5,9.2,24.3,15.9c6.8,6.7,12.1,14.5,15.9,23.6c3.8,9,5.7,18.7,5.7,29v0.4c0,10.3-1.9,20-5.8,29
		c-3.9,9-9.2,17-16,23.8c-6.8,6.8-15,12.2-24.4,16.1C997.4,237,987.1,238.9,975.9,238.9z M976.3,209.6c6.3,0,12.2-1.2,17.6-3.5
		c5.4-2.3,10-5.6,13.7-9.7c3.8-4.1,6.8-8.9,8.9-14.4c2.1-5.4,3.2-11.3,3.2-17.5v-0.4c0-6.2-1.1-12.1-3.2-17.6
		c-2.1-5.5-5.2-10.3-9.1-14.5c-3.9-4.1-8.6-7.4-14-9.8c-5.4-2.4-11.2-3.6-17.6-3.6c-6.5,0-12.4,1.2-17.7,3.5
		c-5.3,2.3-9.9,5.6-13.6,9.7c-3.8,4.1-6.8,8.9-8.9,14.4c-2.1,5.4-3.2,11.3-3.2,17.5v0.4c0,6.2,1.1,12.1,3.2,17.6
		c2.1,5.5,5.2,10.3,9.1,14.5c3.9,4.1,8.5,7.4,13.9,9.8C964,208.4,969.9,209.6,976.3,209.6z"/>
	<path fill="#FFFFFF" d="M1081.4,91.7h29.4l67.8,89.1V91.7h31.4v144.7h-27.1l-70.1-92v92h-31.4V91.7z"/>
</g>
<g>
	<g>
		<path fill="#FFFFFF" d="M443,273.9h7.2l15.2,35.8h-8.2l-3.2-8h-15l-3.2,8h-8L443,273.9z M451.2,294.8l-4.7-11.5l-4.7,11.5H451.2z"
			/>
		<path fill="#FFFFFF" d="M481,274.2h16.5c4.1,0,7.2,1.1,9.3,3.1c1.6,1.6,2.4,3.6,2.4,6v0.1c0,1-0.1,1.9-0.4,2.7
			c-0.3,0.8-0.6,1.5-1,2.1c-0.4,0.6-0.9,1.2-1.5,1.6c-0.6,0.5-1.2,0.9-1.8,1.2c2.1,0.8,3.7,1.8,4.9,3.2c1.2,1.3,1.8,3.2,1.8,5.6v0.1
			c0,1.6-0.3,3-0.9,4.3c-0.6,1.2-1.5,2.2-2.7,3s-2.6,1.4-4.2,1.8c-1.6,0.4-3.5,0.6-5.4,0.6H481V274.2z M495.9,288.5
			c1.7,0,3.1-0.3,4.1-0.9c1-0.6,1.5-1.5,1.5-2.9v-0.1c0-1.2-0.4-2.1-1.3-2.7c-0.9-0.6-2.1-0.9-3.8-0.9h-7.7v7.5H495.9z M497.9,302.9
			c1.7,0,3.1-0.3,4.1-0.9c1-0.6,1.5-1.6,1.5-2.9v-0.1c0-1.2-0.5-2.1-1.4-2.8c-0.9-0.7-2.4-1-4.4-1h-9v7.8H497.9z"/>
		<path fill="#FFFFFF" d="M540,273.9h7.2l15.2,35.8h-8.2l-3.2-8h-15l-3.2,8h-8L540,273.9z M548.2,294.8l-4.7-11.5l-4.7,11.5H548.2z"
			/>
		<path fill="#FFFFFF" d="M586.3,281.4h-10.8v-7.2H605v7.2h-10.8v28.3h-7.8V281.4z"/>
		<path fill="#FFFFFF" d="M621.1,274.2h26.7v7h-19v7.2h16.7v7h-16.7v7.5h19.3v7h-27V274.2z"/>
		<path fill="#FFFFFF" d="M665.3,274.2h8.4l9.3,15l9.3-15h8.4v35.5h-7.7v-23.2l-10,15.2h-0.2l-9.9-15v23h-7.7V274.2z"/>
		<path fill="#FFFFFF" d="M719.5,274.2h26.7v7h-19v7.2h16.7v7h-16.7v7.5h19.3v7h-27V274.2z"/>
		<path fill="#FFFFFF" d="M763.6,274.2h7.2l16.6,21.9v-21.9h7.7v35.5h-6.6l-17.2-22.6v22.6h-7.7V274.2z"/>
		<path fill="#FFFFFF" d="M822.1,281.4h-10.8v-7.2h29.4v7.2H830v28.3h-7.8V281.4z"/>
		<path fill="#FFFFFF" d="M895,310.2c-2.7,0-5.4-0.5-8-1.4c-2.6-0.9-5-2.4-7.1-4.3l4.6-5.5c1.6,1.3,3.3,2.4,5,3.1
			c1.7,0.8,3.6,1.2,5.6,1.2c1.6,0,2.9-0.3,3.8-0.9c0.9-0.6,1.3-1.4,1.3-2.5v-0.1c0-0.5-0.1-1-0.3-1.3c-0.2-0.4-0.5-0.8-1.1-1.1
			c-0.5-0.3-1.3-0.7-2.2-1c-0.9-0.3-2.1-0.7-3.6-1.1c-1.8-0.4-3.4-0.9-4.9-1.5c-1.5-0.5-2.7-1.2-3.7-2c-1-0.8-1.8-1.8-2.4-3
			c-0.6-1.2-0.8-2.7-0.8-4.4v-0.1c0-1.6,0.3-3.1,0.9-4.4c0.6-1.3,1.5-2.4,2.5-3.4c1.1-0.9,2.4-1.7,3.9-2.2c1.5-0.5,3.2-0.8,5-0.8
			c2.6,0,5,0.4,7.2,1.2c2.2,0.8,4.2,1.9,6,3.3l-4.1,5.9c-1.6-1.1-3.1-1.9-4.7-2.6c-1.5-0.6-3-0.9-4.6-0.9c-1.5,0-2.7,0.3-3.4,0.9
			c-0.8,0.6-1.1,1.3-1.1,2.2v0.1c0,0.6,0.1,1.1,0.3,1.5c0.2,0.4,0.6,0.8,1.2,1.1c0.6,0.3,1.4,0.7,2.4,1c1,0.3,2.3,0.7,3.8,1.1
			c1.8,0.5,3.4,1,4.8,1.6c1.4,0.6,2.6,1.3,3.6,2.1c1,0.8,1.7,1.8,2.2,2.9c0.5,1.1,0.7,2.5,0.7,4v0.1c0,1.8-0.3,3.3-1,4.7
			c-0.6,1.4-1.5,2.5-2.7,3.5c-1.1,0.9-2.5,1.6-4.1,2.1C898.7,310,896.9,310.2,895,310.2z"/>
		<path fill="#FFFFFF" d="M924.9,274.2h26.7v7h-19v7.2h16.7v7h-16.7v7.5h19.3v7h-27V274.2z"/>
		<path fill="#FFFFFF" d="M969.1,274.2h16.2c4.5,0,7.9,1.2,10.4,3.6c2,2,3,4.7,3,8.1v0.1c0,2.9-0.7,5.2-2.1,7
			c-1.4,1.8-3.2,3.1-5.5,4l8.7,12.7h-9.1l-7.6-11.4h-0.1h-6v11.4h-7.8V274.2z M984.8,291.4c1.9,0,3.4-0.5,4.4-1.4
			c1-0.9,1.5-2.1,1.5-3.7v-0.1c0-1.7-0.5-3-1.6-3.8c-1.1-0.8-2.6-1.3-4.5-1.3h-7.8v10.2H984.8z"/>
		<path fill="#FFFFFF" d="M1012.9,274.2h8.6l9.3,25l9.3-25h8.4l-14.4,35.8h-6.9L1012.9,274.2z"/>
		<path fill="#FFFFFF" d="M1064.5,274.2h7.8v35.5h-7.8V274.2z"/>
		<path fill="#FFFFFF" d="M1108,310.3c-2.6,0-5-0.5-7.3-1.4c-2.2-0.9-4.2-2.2-5.8-3.9c-1.6-1.6-2.9-3.6-3.8-5.8
			c-0.9-2.2-1.4-4.6-1.4-7.2v-0.1c0-2.5,0.5-4.9,1.4-7.1c0.9-2.2,2.2-4.2,3.8-5.8c1.6-1.7,3.6-3,5.8-4s4.8-1.4,7.5-1.4
			c1.7,0,3.2,0.1,4.5,0.4s2.6,0.6,3.7,1.1c1.1,0.5,2.1,1.1,3.1,1.7c0.9,0.7,1.8,1.4,2.6,2.2l-5,5.7c-1.4-1.3-2.8-2.2-4.2-2.9
			c-1.4-0.7-3.1-1.1-4.8-1.1c-1.5,0-2.9,0.3-4.1,0.9c-1.3,0.6-2.4,1.4-3.3,2.4c-0.9,1-1.6,2.2-2.1,3.5c-0.5,1.3-0.8,2.8-0.8,4.3v0.1
			c0,1.5,0.3,3,0.8,4.3c0.5,1.4,1.2,2.5,2.1,3.6c0.9,1,2,1.8,3.2,2.4c1.3,0.6,2.7,0.9,4.2,0.9c2,0,3.7-0.4,5.2-1.1
			c1.4-0.7,2.8-1.8,4.2-3l5,5c-0.9,1-1.9,1.9-2.8,2.6c-1,0.8-2.1,1.4-3.2,2c-1.2,0.6-2.4,1-3.8,1.3
			C1111.3,310.2,1109.7,310.3,1108,310.3z"/>
		<path fill="#FFFFFF" d="M1138.9,274.2h26.7v7h-19v7.2h16.7v7h-16.7v7.5h19.3v7h-27V274.2z"/>
		<path fill="#FFFFFF" d="M1195.8,310.2c-2.7,0-5.4-0.5-8-1.4c-2.6-0.9-5-2.4-7.1-4.3l4.6-5.5c1.6,1.3,3.3,2.4,5,3.1
			c1.7,0.8,3.6,1.2,5.6,1.2c1.6,0,2.9-0.3,3.8-0.9c0.9-0.6,1.3-1.4,1.3-2.5v-0.1c0-0.5-0.1-1-0.3-1.3c-0.2-0.4-0.5-0.8-1.1-1.1
			c-0.5-0.3-1.3-0.7-2.2-1c-0.9-0.3-2.1-0.7-3.6-1.1c-1.8-0.4-3.4-0.9-4.9-1.5c-1.5-0.5-2.7-1.2-3.7-2s-1.8-1.8-2.4-3
			c-0.6-1.2-0.8-2.7-0.8-4.4v-0.1c0-1.6,0.3-3.1,0.9-4.4c0.6-1.3,1.5-2.4,2.5-3.4c1.1-0.9,2.4-1.7,3.9-2.2c1.5-0.5,3.2-0.8,5-0.8
			c2.6,0,5,0.4,7.2,1.2c2.2,0.8,4.2,1.9,6,3.3l-4.1,5.9c-1.6-1.1-3.1-1.9-4.7-2.6c-1.5-0.6-3-0.9-4.6-0.9s-2.7,0.3-3.4,0.9
			c-0.8,0.6-1.1,1.3-1.1,2.2v0.1c0,0.6,0.1,1.1,0.3,1.5c0.2,0.4,0.6,0.8,1.2,1.1c0.6,0.3,1.4,0.7,2.4,1c1,0.3,2.3,0.7,3.8,1.1
			c1.8,0.5,3.4,1,4.8,1.6c1.4,0.6,2.6,1.3,3.6,2.1c1,0.8,1.7,1.8,2.2,2.9c0.5,1.1,0.7,2.5,0.7,4v0.1c0,1.8-0.3,3.3-1,4.7
			c-0.6,1.4-1.5,2.5-2.7,3.5c-1.1,0.9-2.5,1.6-4.1,2.1C1199.5,310,1197.7,310.2,1195.8,310.2z"/>
	</g>
</g>
<g>
</g>
<g>
</g>
<g>
</g>
<g>
</g>
<g>
</g>
<g>
</g>
</svg>
